<svg width="27" height="33" viewBox="0 0 27 33" fill="none" xmlns="http://www.w3.org/2000/svg">
<mask id="mask0_3_599" style="mask-type:luminance" maskUnits="userSpaceOnUse" x="0" y="0" width="27" height="32">
<path fill-rule="evenodd" clip-rule="evenodd" d="M24.856 0.441079C25.1273 0.264923 25.455 0.294506 25.7047 0.513693C25.9543 0.734225 26.0823 1.10805 26.0378 1.48457L23.0533 26.3616C23.0175 26.6561 22.8775 26.9183 22.6713 27.0743C22.5422 27.1711 22.3957 27.2209 22.2481 27.2209C22.1591 27.2209 22.0701 27.2021 21.9854 27.1671L10.6085 22.349L21.7955 5.64912L7.33861 20.9653L0.550235 18.0903C0.243103 17.9599 0.0271343 17.6157 0.00217304 17.2122C-0.0217029 16.8102 0.148685 16.4283 0.437367 16.2414L24.856 0.441079ZM9.49612 30.2464V24.0097L13.9099 25.8788L10.9656 30.8435C10.8093 31.1071 10.564 31.255 10.3101 31.255C10.2254 31.255 10.1397 31.2388 10.0561 31.2052C9.72186 31.0681 9.49612 30.6821 9.49612 30.2464Z" fill="white"/>
</mask>
<g mask="url(#mask0_3_599)">
<rect y="0.326782" width="26" height="32" fill="#1D1E7A"/>
</g>
</svg>
