<svg width="56" height="56" viewBox="0 0 56 56" fill="none" xmlns="http://www.w3.org/2000/svg">
<mask id="mask0_2_811" style="mask-type:luminance" maskUnits="userSpaceOnUse" x="0" y="0" width="56" height="56">
<path fill-rule="evenodd" clip-rule="evenodd" d="M44.3334 16.6562C44.3334 24.5242 38.4105 33.2297 30.1807 34.5702L32.4332 37.4841C32.6986 37.8268 32.7407 38.2855 32.5437 38.6692C32.3454 39.0528 31.9421 39.2948 31.5 39.2948H29.078C28.8876 40.8486 28.3498 41.8304 27.8462 42.6862L27.8458 42.687C27.3026 43.6096 26.8334 44.4066 26.8334 46.0864C26.8334 47.7666 27.3027 48.5635 27.8461 49.4865L27.8462 49.4867L27.8479 49.4896C28.4661 50.5401 29.1667 51.7305 29.1667 54.01C29.1667 54.6357 28.6449 55.142 28 55.142C27.3551 55.142 26.8333 54.6357 26.8333 54.01C26.8333 52.3298 26.364 51.5329 25.8206 50.6099L25.8205 50.6097L25.8188 50.6068C25.2006 49.5563 24.5 48.3659 24.5 46.0864C24.5 43.8068 25.2007 42.6163 25.8191 41.5657L25.8206 41.5631C26.2247 40.8765 26.5864 40.2572 26.7461 39.2948H24.5001C24.058 39.2948 23.6548 39.0528 23.4565 38.6692C23.2593 38.2855 23.3015 37.8268 23.5669 37.4841L25.8194 34.5701C17.5896 33.2297 11.6667 24.5241 11.6667 16.6561C11.6667 7.918 18.9936 0.809109 28 0.809109C37.0064 0.809109 44.3333 7.918 44.3334 16.6562ZM18.7248 15.6491C19.0745 12.5828 20.992 9.92757 23.8528 8.54357C24.4293 8.265 24.6641 7.58521 24.377 7.02575C24.0886 6.46757 23.3937 6.23878 22.8115 6.5184C19.2385 8.24505 16.8436 11.5657 16.405 15.3993C16.3344 16.0205 16.7958 16.5798 17.4361 16.6494C17.4794 16.6539 17.524 16.6561 17.5661 16.6561C18.1529 16.6561 18.6587 16.2283 18.7248 15.6491ZM56 23.4477C56 18.574 52.7677 14.2685 47.9563 12.7353C47.5701 12.6136 47.1486 12.691 46.8398 12.9453C46.53 13.1995 46.3784 13.5897 46.4377 13.9777C46.5938 14.9913 46.6667 15.8425 46.6667 16.6561C46.6667 22.7359 43.4481 29.229 38.4682 33.1996C38.1936 33.4185 38.0364 33.7479 38.042 34.0928C38.0477 34.4387 38.2164 34.7627 38.4989 34.9727C39.7719 35.9195 41.1494 36.533 42.5515 36.8254L42.123 37.6566C41.9419 38.007 41.9613 38.4237 42.1743 38.7576C42.3874 39.0914 42.7622 39.2948 43.1667 39.2948H43.2913C43.5344 40.4039 44.1033 41.1108 44.5886 41.7002L44.5888 41.7006C45.1379 42.3658 45.5 42.8047 45.5 43.8226C45.5 44.8403 45.1379 45.2792 44.5892 45.9442L44.5892 45.9442L44.5886 45.945L44.5872 45.9467C43.9539 46.7157 43.1667 47.6718 43.1667 49.4822C43.1667 50.1079 43.6885 50.6142 44.3334 50.6142C44.9783 50.6142 45.5001 50.1079 45.5001 49.4822C45.5001 48.4645 45.8622 48.0257 46.4109 47.3606L46.4109 47.3606L46.4115 47.3599L46.4129 47.3582C47.0462 46.5891 47.8334 45.6331 47.8334 43.8226C47.8334 42.0121 47.0462 41.0561 46.4129 40.287L46.4115 40.2854C46.107 39.9164 45.8695 39.609 45.7097 39.242C46.027 39.1827 46.3187 39.0299 46.4924 38.7577C46.7054 38.4238 46.7248 38.0071 46.5437 37.6567L46.1136 36.8221C51.723 35.6265 56 29.0223 56 23.4477ZM9.3333 16.6561C9.3333 23.262 13.1159 30.2636 18.7441 34.0773C19.0882 34.3106 19.2773 34.7052 19.2387 35.1096C19.2 35.5153 18.9402 35.8691 18.5574 36.0371C17.6432 36.4386 16.7164 36.6772 15.7874 36.8356L16.2104 37.6566C16.3915 38.007 16.3721 38.4237 16.1591 38.7576C15.946 39.0914 15.5712 39.2948 15.1667 39.2948H15.061C14.8436 40.6279 14.2855 41.4864 13.8041 42.1866L13.8041 42.1867C13.2618 42.9758 12.8334 43.5993 12.8334 44.9545C12.8334 46.3095 13.2617 46.9329 13.8039 47.7221L13.8041 47.7224C14.4114 48.6056 15.1667 49.7055 15.1667 51.7461C15.1667 52.3717 14.6449 52.878 14 52.878C13.3551 52.878 12.8333 52.3717 12.8333 51.7461C12.8333 50.3911 12.405 49.7676 11.8628 48.9784L11.8626 48.9782C11.2553 48.0949 10.5 46.995 10.5 44.9545C10.5 42.9139 11.2553 41.814 11.8627 40.9309C12.23 40.3962 12.533 39.9219 12.698 39.2606C12.3496 39.2186 12.0287 39.0516 11.841 38.7576C11.628 38.4237 11.6086 38.007 11.7898 37.6566L12.1982 36.8642C5.2057 35.6956 0 27.9424 0 21.1839C0 15.5088 3.69939 10.3853 9.20456 8.43416C9.63178 8.27933 10.1195 8.38768 10.443 8.71049C10.7632 9.03108 10.8589 9.50532 10.6868 9.91982C9.78906 12.0863 9.3333 14.3525 9.3333 16.6561Z" fill="white"/>
</mask>
<g mask="url(#mask0_2_811)">
<rect y="0.809109" width="56" height="54" fill="#026CFF"/>
</g>
</svg>
