<svg width="56" height="61" viewBox="0 0 56 61" fill="none" xmlns="http://www.w3.org/2000/svg">
<mask id="mask0_2_835" style="mask-type:luminance" maskUnits="userSpaceOnUse" x="2" y="0" width="52" height="61">
<path fill-rule="evenodd" clip-rule="evenodd" d="M9.33331 4.54318C9.33331 6.6029 7.76631 8.27263 5.83331 8.27263C3.90032 8.27263 2.33331 6.6029 2.33331 4.54318C2.33331 2.48347 3.90032 0.813736 5.83331 0.813736C7.76631 0.813736 9.33331 2.48347 9.33331 4.54318ZM28 0.813736C37.0064 0.813736 44.3333 8.6211 44.3333 18.2178C44.3333 26.5289 38.4915 38.5203 30.1508 40.3359L32.4332 43.5786C32.6987 43.9549 32.7408 44.4588 32.5437 44.8801C32.3454 45.3014 31.9421 45.5672 31.5 45.5672H29.0897C28.8831 47.2892 28.2653 48.1366 27.7451 48.8305C27.2154 49.5345 26.8336 50.0433 26.8336 51.7829C26.8336 53.5226 27.2153 54.0312 27.7451 54.7354L27.746 54.7367C28.3794 55.5814 29.1669 56.6319 29.1669 59.2418C29.1669 59.929 28.6451 60.485 28.0002 60.485C27.3554 60.485 26.8335 59.929 26.8335 59.2418C26.8335 57.5022 26.4519 56.9936 25.9221 56.2894L25.9211 56.288C25.2877 55.4433 24.5002 54.3929 24.5002 51.7829C24.5002 49.173 25.2877 48.1226 25.9211 47.2779L25.9221 47.2765C26.2942 46.782 26.5845 46.3628 26.7295 45.5671H24.5002C24.0581 45.5671 23.6549 45.3013 23.4566 44.88C23.2594 44.4587 23.3016 43.9548 23.567 43.5785L25.8495 40.3357C17.5085 38.5203 11.6667 26.5287 11.6667 18.2178C11.6667 8.6211 18.9936 0.813736 28 0.813736ZM18.6666 18.2179C18.6666 14.4204 20.6536 11.0067 23.8528 9.30942C24.4306 9.00349 24.6651 8.2569 24.378 7.64259C24.0908 7.02828 23.3902 6.77701 22.8137 7.08294C18.8158 9.20511 16.3332 13.4711 16.3332 18.2179C16.3332 18.9051 16.855 19.4611 17.4999 19.4611C18.1448 19.4611 18.6666 18.9051 18.6666 18.2179ZM51.3333 7.45192C51.3333 6.58879 51.6558 6.21479 52.1912 5.59687L52.193 5.59485C52.815 4.87512 53.6667 3.88951 53.6667 2.05681C53.6667 1.36977 53.1449 0.813736 52.5 0.813736C51.8551 0.813736 51.3333 1.36977 51.3333 2.05692C51.3333 2.92006 51.0109 3.29405 50.4754 3.91197L50.4737 3.91387C49.8519 4.63349 49 5.61923 49 7.45192C49 9.28463 49.8518 10.2702 50.4737 10.99L50.4755 10.992C51.011 11.6099 51.3334 11.9838 51.3334 12.8458C51.3334 13.7064 51.011 14.0792 50.4755 14.6959L50.4726 14.6993C49.8507 15.4189 49 16.4033 49 18.2324C49 18.9195 49.5218 19.4755 50.1667 19.4755C50.8116 19.4755 51.3334 18.9195 51.3334 18.2324C51.3334 17.3728 51.6559 17.0001 52.1902 16.3834L52.1913 16.382C52.8144 15.6622 53.6667 14.6777 53.6667 12.8458C53.6667 11.0126 52.8145 10.0268 52.1912 9.30686C51.6558 8.68905 51.3333 8.31517 51.3333 7.45192ZM46.6666 40.5945C46.6666 41.9676 45.622 43.0807 44.3333 43.0807C43.0447 43.0807 42 41.9676 42 40.5945C42 39.2214 43.0447 38.1082 44.3333 38.1082C45.622 38.1082 46.6666 39.2214 46.6666 40.5945ZM16.3333 53.026C17.622 53.026 18.6666 51.9129 18.6666 50.5398C18.6666 49.1666 17.622 48.0535 16.3333 48.0535C15.0447 48.0535 14 49.1666 14 50.5398C14 51.9129 15.0447 53.026 16.3333 53.026Z" fill="white"/>
</mask>
<g mask="url(#mask0_2_835)">
<rect y="0.813736" width="56" height="60" fill="#026CFF"/>
</g>
</svg>
