<svg width="27" height="33" viewBox="0 0 27 33" fill="none" xmlns="http://www.w3.org/2000/svg">
<mask id="mask0_3_591" style="mask-type:luminance" maskUnits="userSpaceOnUse" x="0" y="0" width="27" height="33">
<path fill-rule="evenodd" clip-rule="evenodd" d="M20.6202 9.73976C20.6202 14.4132 17.8654 19.5842 14.0375 20.3804L15.0852 22.1113C15.2087 22.3148 15.2283 22.5873 15.1366 22.8152C15.0444 23.043 14.8568 23.1868 14.6512 23.1868H13.5247C13.4361 24.1097 13.1859 24.6929 12.9517 25.2012L12.9515 25.2017C12.6989 25.7497 12.4807 26.2231 12.4807 27.2209C12.4807 28.2189 12.6989 28.6923 12.9517 29.2405L12.9517 29.2406L12.9525 29.2423C13.2401 29.8663 13.5659 30.5734 13.5659 31.9274C13.5659 32.299 13.3232 32.5998 13.0233 32.5998C12.7233 32.5998 12.4806 32.299 12.4806 31.9274C12.4806 30.9294 12.2623 30.456 12.0096 29.9078L12.0095 29.9077L12.0087 29.906C11.7212 29.282 11.3953 28.5749 11.3953 27.2209C11.3953 25.8668 11.7213 25.1597 12.0089 24.5357L12.0096 24.5341C12.1975 24.1263 12.3658 23.7584 12.4401 23.1868H11.3954C11.1898 23.1868 11.0022 23.043 10.91 22.8152C10.8183 22.5873 10.8379 22.3148 10.9614 22.1113L12.009 20.3804C8.1812 19.5842 5.42637 14.4132 5.42637 9.7397C5.42637 4.54937 8.83424 0.326782 13.0233 0.326782C17.2123 0.326782 20.6201 4.54937 20.6202 9.73976ZM8.7092 9.14151C8.87184 7.32017 9.76373 5.74302 11.0943 4.92095C11.3625 4.75548 11.4717 4.3517 11.3381 4.01938C11.204 3.68783 10.8808 3.55193 10.61 3.71802C8.94815 4.74363 7.83425 6.71606 7.63025 8.99313C7.59739 9.36213 7.81202 9.69438 8.10983 9.73573C8.12997 9.73837 8.15068 9.7397 8.17026 9.7397C8.44319 9.7397 8.67847 9.48555 8.7092 9.14151ZM26.0465 13.7738C26.0465 10.8789 24.5431 8.32145 22.3053 7.41075C22.1256 7.33852 21.9296 7.38447 21.786 7.53549C21.6419 7.68652 21.5713 7.91829 21.5989 8.14874C21.6715 8.75084 21.7054 9.25642 21.7054 9.7397C21.7054 13.351 20.2084 17.2078 17.8922 19.5663C17.7645 19.6963 17.6913 19.892 17.694 20.0968C17.6966 20.3023 17.7751 20.4948 17.9065 20.6195C18.4986 21.1819 19.1392 21.5463 19.7914 21.7199L19.5921 22.2137C19.5079 22.4218 19.5169 22.6694 19.616 22.8677C19.7151 23.066 19.8894 23.1868 20.0775 23.1868H20.1355C20.2486 23.8456 20.5132 24.2655 20.7389 24.6156L20.739 24.6158C20.9944 25.0109 21.1628 25.2716 21.1628 25.8762C21.1628 26.4807 20.9944 26.7414 20.7392 27.1364L20.7389 27.1369L20.7382 27.1379C20.4437 27.5947 20.0775 28.1626 20.0775 29.238C20.0775 29.6096 20.3202 29.9103 20.6202 29.9103C20.9201 29.9103 21.1628 29.6096 21.1628 29.238C21.1628 28.6335 21.3313 28.3728 21.5865 27.9778L21.5868 27.9773L21.5874 27.9763C21.8819 27.5195 22.2481 26.9516 22.2481 25.8762C22.2481 24.8008 21.8819 24.233 21.5874 23.7761L21.5868 23.7751C21.4451 23.556 21.3346 23.3734 21.2603 23.1554C21.4079 23.1202 21.5436 23.0294 21.6244 22.8677C21.7235 22.6694 21.7325 22.4219 21.6482 22.2138L21.4482 21.718C24.0572 21.0079 26.0465 17.0851 26.0465 13.7738ZM4.34107 9.7397C4.34107 13.6635 6.10043 17.8224 8.7182 20.0876C8.87825 20.2262 8.96621 20.4606 8.94825 20.7008C8.93024 20.9418 8.80942 21.152 8.63137 21.2517C8.20613 21.4902 7.77509 21.632 7.34298 21.7261L7.5397 22.2137C7.62395 22.4218 7.61494 22.6694 7.51584 22.8677C7.41674 23.066 7.2424 23.1868 7.05428 23.1868H7.00514C6.904 23.9786 6.6444 24.4886 6.42052 24.9044L6.42049 24.9045C6.16828 25.3732 5.96903 25.7436 5.96903 26.5485C5.96903 27.3534 6.16825 27.7237 6.42044 28.1925L6.42052 28.1926C6.70296 28.7173 7.05428 29.3706 7.05428 30.5827C7.05428 30.9543 6.81157 31.255 6.51163 31.255C6.21169 31.255 5.96897 30.9543 5.96897 30.5827C5.96897 29.7778 5.76975 29.4075 5.51756 28.9387L5.51749 28.9386C5.23504 28.4139 4.88372 27.7606 4.88372 26.5485C4.88372 25.3365 5.23504 24.6831 5.51754 24.1586C5.68836 23.841 5.82928 23.5593 5.90605 23.1664C5.74402 23.1415 5.59476 23.0423 5.50746 22.8677C5.40836 22.6694 5.39936 22.4218 5.4836 22.2137L5.67356 21.743C2.42126 21.0489 0 16.4436 0 12.4291C0 9.05818 1.72065 6.01489 4.28119 4.85596C4.4799 4.76399 4.70674 4.82835 4.85722 5.0201C5.00612 5.21052 5.05063 5.49222 4.97061 5.73842C4.55305 7.02531 4.34107 8.37138 4.34107 9.7397Z" fill="white"/>
</mask>
<g mask="url(#mask0_3_591)">
<rect y="0.326782" width="26" height="32" fill="#1D1E7A"/>
</g>
</svg>
