<svg width="24" height="24" viewBox="0 0 24 24" fill="none" xmlns="http://www.w3.org/2000/svg">
<mask id="mask0_2_852" style="mask-type:luminance" maskUnits="userSpaceOnUse" x="0" y="2" width="24" height="20">
<path fill-rule="evenodd" clip-rule="evenodd" d="M23.783 12.81L18.0962 10.7892V4.639C18.0962 4.52041 18.0188 4.41479 17.903 4.3759L12.0807 2.30685C12.0203 2.28621 11.9525 2.28669 11.8921 2.30685L6.08066 4.31877C6.02202 4.33893 5.97155 4.3759 5.94656 4.41431C5.904 4.464 5.8805 4.52737 5.8805 4.59147V10.7866L0.200165 12.7527C0.141526 12.7731 0.0910515 12.81 0.0660619 12.8484C0.0235052 12.8981 0 12.9615 0 13.0258V19.2776C0 19.3953 0.0774433 19.5014 0.192495 19.5403L6.00742 21.4847C6.06804 21.5049 6.13559 21.5049 6.19621 21.4847L11.9881 19.5494L17.7679 21.4847C17.8283 21.5049 17.8961 21.5049 17.9567 21.4847L23.7731 19.5379C23.8941 19.5018 23.976 19.3948 23.976 19.2716V13.0731C23.976 12.9546 23.8991 12.8489 23.783 12.81ZM17.0826 10.3665L12.6134 11.834V7.18336L17.0826 5.59299V10.3665ZM16.1431 4.82288L11.9861 3.31605L7.60429 4.84593L11.9911 6.31483L16.1431 4.82288ZM6.11085 14.7492L1.72404 13.2803L6.10614 11.7504L10.2631 13.2573L6.11085 14.7492ZM6.73287 20.2684L11.2023 18.8006V14.0274L6.73287 15.6177V20.2684ZM17.8711 14.7492L13.4843 13.2803L17.8664 11.7504L22.0236 13.2573L17.8711 14.7492ZM18.4931 20.2684L22.9626 18.8006H22.9623V14.0274L18.4931 15.6177V20.2684Z" fill="white"/>
</mask>
<g mask="url(#mask0_2_852)">
<rect y="0.26445" width="24" height="23" fill="#1D1E7A"/>
</g>
</svg>
