<svg width="68" height="68" viewBox="0 0 68 68" fill="none" xmlns="http://www.w3.org/2000/svg">
<rect opacity="0.184547" width="68" height="68" rx="10" fill="#2FE8B6"/>
<mask id="mask0_24_565" style="mask-type:luminance" maskUnits="userSpaceOnUse" x="0" y="0" width="68" height="68">
<rect width="68" height="68" rx="10" fill="white"/>
</mask>
<g mask="url(#mask0_24_565)">
<rect width="68" height="68" fill="#026CFF"/>
</g>
<mask id="mask1_24_565" style="mask-type:luminance" maskUnits="userSpaceOnUse" x="23" y="22" width="22" height="24">
<path d="M43.524 23.8984H34.2118L31.6465 22.1283C31.5182 22.0513 31.3643 22 31.2104 22H24.4379C24.0018 22 23.6683 22.3335 23.6683 22.7696V37.3151C23.6683 37.7512 24.0018 38.0847 24.4379 38.0847H33.2114V40.0344C32.1596 40.3166 31.3387 41.1375 31.0821 42.1893H24.6688V43.7285H31.0821C31.4926 45.319 33.1344 46.2938 34.7506 45.8577C35.8024 45.5755 36.6233 44.7546 36.8798 43.7285H43.6523V42.1893H36.8798C36.5976 41.1375 35.8024 40.3166 34.7506 40.0344V38.0847H43.524C43.9601 38.0847 44.2936 37.7512 44.2936 37.3151V24.668C44.2936 24.2575 43.9601 23.8984 43.524 23.8984Z" fill="white"/>
</mask>
<g mask="url(#mask1_24_565)">
<rect x="22" y="22" width="24" height="24" fill="white"/>
</g>
</svg>
