<svg width="24" height="24" viewBox="0 0 24 24" fill="none" xmlns="http://www.w3.org/2000/svg">
<mask id="mask0_3_410" style="mask-type:luminance" maskUnits="userSpaceOnUse" x="1" y="0" width="22" height="24">
<path d="M21.524 1.89835H12.2118L9.6465 0.128267C9.51823 0.0513069 9.36431 0 9.21039 0H2.43788C2.00177 0 1.66827 0.333495 1.66827 0.769603V15.3151C1.66827 15.7512 2.00177 16.0847 2.43788 16.0847H11.2114V18.0344C10.1596 18.3166 9.33865 19.1375 9.08212 20.1893H2.66876V21.7285H9.08212C9.49257 23.319 11.1344 24.2938 12.7506 23.8577C13.8024 23.5755 14.6233 22.7546 14.8798 21.7285H21.6523V20.1893H14.8798C14.5976 19.1375 13.8024 18.3166 12.7506 18.0344V16.0847H21.524C21.9601 16.0847 22.2936 15.7512 22.2936 15.3151V2.66796C22.2936 2.2575 21.9601 1.89835 21.524 1.89835Z" fill="white"/>
</mask>
<g mask="url(#mask0_3_410)">
<rect width="24" height="24" fill="#1D1E7A"/>
</g>
</svg>
