<svg width="20" height="20" viewBox="0 0 20 20" fill="none" xmlns="http://www.w3.org/2000/svg">
<mask id="mask0_2_850" style="mask-type:luminance" maskUnits="userSpaceOnUse" x="0" y="0" width="20" height="20">
<path fill-rule="evenodd" clip-rule="evenodd" d="M10.3575 0.553116V5.02403C11.6071 5.00692 12.8517 4.86485 14.0713 4.59985C13.2276 2.31266 11.8869 0.763936 10.3575 0.553116ZM14.9994 9.88914H10.3575V5.71761C11.683 5.70068 13.0031 5.54794 14.2957 5.26194C14.7444 6.76647 14.9813 8.32298 14.9994 9.88914ZM20 10.5827H15.7143C15.6981 12.2063 15.4553 13.8202 14.9926 15.3806C15.9361 15.6251 16.8466 15.9767 17.7053 16.428C19.1152 14.7793 19.9222 12.7238 20 10.5827ZM14.0713 15.872C13.2276 18.1592 11.8869 19.7079 10.3575 19.9188V15.4478C11.6071 15.4648 12.8517 15.607 14.0713 15.872ZM13.0707 19.476C12.9813 19.5041 12.8913 19.5296 12.8009 19.555L12.7247 19.5772L12.7246 19.5773L12.7244 19.5773L12.7243 19.5774C12.6748 19.5919 12.625 19.6065 12.5747 19.6202C12.5602 19.6239 12.5457 19.6272 12.5313 19.6305C12.5168 19.6338 12.5023 19.6371 12.4878 19.6407C13.5458 18.644 14.331 17.4069 14.7722 16.0417C15.6206 16.2588 16.4417 16.5654 17.2214 16.9561L17.2118 16.9659L17.2054 16.9728C17.2003 16.9782 17.1953 16.9836 17.1901 16.9888C17.1492 17.0299 17.1072 17.0698 17.0652 17.1097L17.0651 17.1099L17.0179 17.1549L16.9947 17.1771C16.9359 17.2333 16.8769 17.2896 16.8166 17.3442C16.7688 17.3875 16.7198 17.4296 16.6707 17.4717L16.6355 17.502L16.6063 17.5271C16.5469 17.5783 16.4877 17.6293 16.4264 17.6788C16.3687 17.7254 16.3102 17.7706 16.2516 17.816L16.2515 17.8161L16.2365 17.8277C16.1647 17.8832 16.0914 17.9386 16.0199 17.9921C15.955 18.0385 15.8888 18.0845 15.8223 18.1308C15.7483 18.1821 15.674 18.2334 15.5986 18.2827C15.531 18.327 15.4626 18.37 15.394 18.4124C15.3174 18.4586 15.2403 18.5048 15.1628 18.5511C15.0931 18.5917 15.0242 18.6311 14.9526 18.6704C14.8736 18.7141 14.794 18.7566 14.7139 18.7983C14.6423 18.8354 14.5709 18.8714 14.4994 18.9068C14.4179 18.9468 14.3357 18.9852 14.2531 19.023C14.1802 19.056 14.1072 19.0889 14.0337 19.1202C13.9629 19.1494 13.8915 19.1785 13.8198 19.2077L13.7795 19.2242L13.772 19.2271C13.7007 19.2552 13.6295 19.2833 13.5576 19.3098C13.4704 19.342 13.3827 19.3723 13.2948 19.4018L13.2789 19.4072C13.2098 19.4306 13.1407 19.4541 13.0707 19.476ZM14.2957 15.2101C13.0031 14.9241 11.683 14.7714 10.3575 14.7543V10.5827H14.9994C14.9813 12.1489 14.7444 13.7056 14.2957 15.2101ZM17.7053 4.04392C16.8466 4.4952 15.9361 4.84673 14.9926 5.09125C15.4553 6.65166 15.6981 8.26557 15.7143 9.88914H20C19.922 7.74826 19.115 5.69272 17.7053 4.04392ZM17.2035 3.49811L17.2035 3.49815C17.2097 3.50481 17.216 3.51147 17.2224 3.5178C16.4421 3.90913 15.6197 4.21597 14.7704 4.43305C14.329 3.06772 13.544 1.83074 12.486 0.83404C12.4988 0.837256 12.5117 0.840208 12.5245 0.843158L12.5246 0.843162C12.5408 0.84689 12.557 0.850615 12.5731 0.854868C12.6414 0.872389 12.7092 0.891723 12.7768 0.910972L12.7974 0.916844C12.8892 0.942583 12.9785 0.968152 13.0679 0.996261C13.1433 1.01997 13.2176 1.0452 13.292 1.0706C13.38 1.10006 13.4679 1.1302 13.5547 1.16238C13.629 1.18981 13.7023 1.2186 13.776 1.24772C13.8042 1.25921 13.8325 1.2705 13.8607 1.28178C13.9178 1.30457 13.9749 1.32734 14.0315 1.35169C14.1051 1.38302 14.1777 1.41519 14.2493 1.44821C14.3343 1.48631 14.4172 1.52509 14.4994 1.56539C14.5352 1.58275 14.5709 1.60086 14.6066 1.61898C14.6424 1.6371 14.6781 1.65522 14.7139 1.67258C14.7947 1.71457 14.8748 1.75758 14.9547 1.80195C15.0245 1.84039 15.0942 1.88001 15.1631 1.92014C15.2418 1.96586 15.319 2.01311 15.3963 2.06137C15.4642 2.10319 15.5321 2.14587 15.5989 2.18955C15.675 2.23917 15.7501 2.29115 15.8248 2.34331C15.8906 2.38903 15.956 2.43475 16.0206 2.48199C16.0942 2.53567 16.1675 2.59155 16.2391 2.64777L16.2663 2.66876L16.2664 2.66886C16.3202 2.71043 16.3742 2.75212 16.4271 2.79543C16.4906 2.84677 16.5525 2.90013 16.6144 2.95335L16.6144 2.95339L16.6369 2.97272C16.6613 2.99415 16.6857 3.01514 16.7101 3.03606L16.7101 3.03607L16.7103 3.03617L16.7104 3.0363L16.7104 3.03632C16.7467 3.06738 16.7827 3.09828 16.818 3.1302C16.876 3.18246 16.9324 3.23656 16.9886 3.29051L17.0189 3.31951L17.0661 3.36436C17.1082 3.40436 17.1505 3.44446 17.1917 3.48563L17.2035 3.49811ZM0 9.88914H4.28575C4.30198 8.26557 4.54475 6.65166 5.00725 5.09125C4.06392 4.8469 3.1534 4.49537 2.29471 4.04392C0.884865 5.69255 0.0778402 7.74826 0 9.88914ZM9.64258 15.4478V19.9188C8.11318 19.7079 6.77227 18.1592 5.92877 15.872C7.14838 15.607 8.39295 15.465 9.64258 15.4478ZM9.64258 10.5827H5.00062C5.01877 12.1489 5.25543 13.7056 5.70432 15.2101C6.99689 14.9239 8.31686 14.7712 9.64258 14.7543V10.5827ZM5.92877 4.59985C6.77227 2.31266 8.11318 0.763936 9.64258 0.553116V5.02403C8.39295 5.00709 7.14838 4.86502 5.92877 4.59985ZM9.64258 5.71761C8.31703 5.70068 6.99689 5.54794 5.70432 5.26194C5.25543 6.76647 5.01877 8.32298 5.00062 9.88914H9.64258V5.71761ZM7.46777 0.843946C7.48225 0.840644 7.49674 0.837342 7.51123 0.833701C6.45375 1.82989 5.66907 3.06619 5.22786 4.43068C4.37947 4.2136 3.55813 3.90693 2.77868 3.51611C2.78477 3.51012 2.79057 3.50385 2.79632 3.49765L2.79633 3.49765C2.8008 3.49282 2.80524 3.48803 2.80975 3.48343C2.85017 3.44289 2.89165 3.40347 2.93306 3.36412L2.93307 3.36411L2.98253 3.31698L3.01101 3.28976C3.06783 3.23542 3.12472 3.18101 3.18289 3.12834C3.22577 3.08905 3.26964 3.05151 3.31359 3.0139L3.31359 3.0139L3.31359 3.01389L3.36528 2.9695L3.39585 2.94318C3.45441 2.89273 3.51271 2.84249 3.57367 2.79374C3.62495 2.75166 3.67755 2.71097 3.73008 2.67034L3.76338 2.64455C3.79258 2.6226 3.82118 2.60062 3.84962 2.57876C3.89291 2.54548 3.93584 2.51249 3.97997 2.4803C4.04507 2.43373 4.11122 2.38767 4.17771 2.34145C4.25171 2.29014 4.32606 2.23883 4.40146 2.18955C4.469 2.14519 4.53724 2.10218 4.60601 2.05951L4.63489 2.04196L4.63491 2.04195C4.70181 2.00132 4.76903 1.96049 4.83691 1.92082C4.90585 1.88018 4.97619 1.84039 5.04774 1.80161C5.12663 1.75792 5.20604 1.71525 5.28615 1.67359C5.35753 1.63668 5.42909 1.60044 5.50065 1.56505C5.58215 1.52509 5.66436 1.48665 5.74691 1.44889C5.81986 1.41587 5.89264 1.38302 5.96629 1.35169C6.03529 1.3233 6.10512 1.29479 6.175 1.26626L6.22041 1.24772C6.29441 1.21826 6.36806 1.18947 6.44276 1.1617C6.52175 1.13265 6.60161 1.10529 6.68142 1.07795L6.68144 1.07795L6.70438 1.07009L6.72239 1.06401L6.72242 1.064L6.72243 1.06399C6.79112 1.04078 6.85989 1.01754 6.92969 0.995584C7.01975 0.967813 7.10876 0.942244 7.19847 0.916844L7.25706 0.900279C7.31271 0.884488 7.36822 0.868736 7.42431 0.854191C7.4388 0.85055 7.45328 0.847248 7.46777 0.843946ZM2.98096 17.1524L3.01844 17.1882L3.01849 17.1883C3.07243 17.2399 3.12645 17.2917 3.18185 17.3418C3.21713 17.3736 3.25302 17.4043 3.28913 17.4352L3.28929 17.4354L3.28936 17.4354C3.31391 17.4565 3.33856 17.4776 3.36318 17.4992L3.3715 17.5063L3.37171 17.5065C3.43816 17.5638 3.50468 17.6212 3.57297 17.6764C3.63398 17.7261 3.69619 17.7741 3.75858 17.8223L3.76094 17.8241C3.83249 17.8803 3.90388 17.9362 3.97962 17.9902C4.02184 18.021 4.0645 18.0511 4.10732 18.0813L4.1075 18.0814L4.17492 18.1291C4.24962 18.1811 4.32502 18.233 4.40111 18.283C4.46796 18.3267 4.53585 18.3694 4.60374 18.4114C4.68106 18.4594 4.7582 18.5067 4.83691 18.5524C4.90585 18.5927 4.97549 18.6322 5.0453 18.6708C5.12523 18.7151 5.20534 18.7581 5.28615 18.8C5.32132 18.8171 5.35652 18.8349 5.39175 18.8528C5.42804 18.8712 5.46434 18.8895 5.50065 18.9072C5.58285 18.9475 5.66575 18.9862 5.75075 19.0245C5.82231 19.0572 5.89491 19.0894 5.96856 19.1209C6.02624 19.1457 6.08423 19.1688 6.14239 19.192L6.14255 19.1921C6.1697 19.2029 6.19688 19.2138 6.22407 19.2248C6.29772 19.254 6.37103 19.2827 6.44538 19.3102C6.53212 19.3425 6.62008 19.3727 6.70804 19.4021L6.72391 19.4075L6.72405 19.4076C6.79307 19.431 6.86215 19.4544 6.93214 19.4763C7.0215 19.5044 7.11086 19.5301 7.20266 19.5557L7.22526 19.5621C7.29215 19.5812 7.35931 19.6004 7.42675 19.6179C7.44274 19.6221 7.45884 19.6257 7.47492 19.6294L7.47498 19.6294C7.48802 19.6324 7.50106 19.6354 7.51402 19.6387C6.45602 18.6418 5.67099 17.4048 5.2296 16.0395C4.38121 16.2568 3.55988 16.5634 2.78043 16.9544C2.78636 16.9603 2.79213 16.9664 2.79792 16.9725L2.79798 16.9726L2.81132 16.9866C2.86478 17.0427 2.9224 17.0971 2.98056 17.152L2.98096 17.1524ZM5.00725 15.3806C4.06392 15.6251 3.1534 15.9767 2.29471 16.428C0.884865 14.7792 0.0780147 12.7236 0 10.5827H4.28575C4.30198 12.2063 4.54475 13.8202 5.00725 15.3806Z" fill="white"/>
</mask>
<g mask="url(#mask0_2_850)">
<rect y="0.539398" width="20" height="19" fill="#1D1E7A"/>
</g>
</svg>
