<svg width="24" height="24" viewBox="0 0 24 24" fill="none" xmlns="http://www.w3.org/2000/svg">
<path fill-rule="evenodd" clip-rule="evenodd" d="M3.4772 6.42738C3.08951 7.01446 2.76274 7.64492 2.50151 8.30769H0.542742C2.10459 3.49292 6.62766 0 11.9557 0C17.2837 0 21.8067 3.49292 23.3677 8.30769H21.4098C21.1486 7.64492 20.8209 7.01446 20.435 6.42738C20.4148 6.43124 20.3951 6.43655 20.3756 6.44183C20.3389 6.45173 20.3025 6.46154 20.2634 6.46154H18.528C18.7117 7.04677 18.8557 7.66985 18.9803 8.30769H17.0834C16.9403 7.66246 16.7741 7.03754 16.5646 6.46154H7.34674C7.1372 7.03754 6.97105 7.66246 6.82797 8.30769H4.93105C5.05566 7.66985 5.19966 7.04677 5.38336 6.46154H3.64797C3.60859 6.46154 3.572 6.4516 3.53531 6.44163L3.53531 6.44163L3.5353 6.44163L3.5353 6.44163L3.53529 6.44163C3.51609 6.43641 3.49687 6.43119 3.4772 6.42738ZM17.8061 4.61538H18.9027C18.3332 4.07908 17.7037 3.60831 17.0206 3.21323C17.3058 3.64615 17.568 4.11415 17.8061 4.61538ZM11.9557 1.84615C13.3874 1.84615 14.7092 2.91138 15.7052 4.61538H8.20613C9.20213 2.91138 10.524 1.84615 11.9557 1.84615ZM6.10428 4.61538C6.34243 4.11415 6.60459 3.64615 6.8889 3.21323C6.20766 3.60831 5.57813 4.07908 5.00859 4.61538H6.10428ZM7.4612 10.3588L5.9252 13.8462C5.88736 13.9329 5.79228 13.9883 5.68797 13.9883H4.90151C4.7972 13.9883 4.70213 13.932 4.6652 13.8462L3.93597 12.1818C3.8649 12.0175 3.80028 11.8606 3.73936 11.7046C3.67197 11.8763 3.60274 12.036 3.53351 12.1892L2.76459 13.8508C2.72582 13.9348 2.63166 13.9883 2.5292 13.9883H1.74274C1.63474 13.9883 1.54059 13.9302 1.50366 13.8425L0.066434 10.3542C0.0387417 10.2858 0.0498186 10.2102 0.0978186 10.1502C0.145819 10.0902 0.222434 10.0551 0.305511 10.0551H1.19074C1.30243 10.0551 1.40028 10.1188 1.43351 10.2111L2.0649 11.9834C2.11751 12.1329 2.16643 12.2742 2.21166 12.4089C2.26705 12.2742 2.32705 12.132 2.39074 11.9815L3.16797 10.1982C3.20582 10.1123 3.29997 10.0551 3.40428 10.0551H4.13536C4.24151 10.0551 4.33566 10.1132 4.37351 10.2L5.11013 11.9446C5.17659 12.1015 5.23566 12.2483 5.29013 12.3868C5.33536 12.2557 5.38797 12.1135 5.44797 11.9575L6.12828 10.2055C6.16336 10.1151 6.26028 10.0542 6.36828 10.0542H7.22305C7.30705 10.0542 7.38459 10.0902 7.43259 10.1502C7.48151 10.2129 7.49074 10.2895 7.4612 10.3588ZM15.6969 10.3588L14.1609 13.8462C14.123 13.9329 14.028 13.9883 13.9246 13.9883H13.1363C13.032 13.9883 12.9378 13.932 12.9 13.8462L12.1717 12.1818C12.0997 12.0175 12.035 11.8606 11.9741 11.7046C11.9067 11.8763 11.8375 12.036 11.7683 12.1892L10.9994 13.8508C10.9606 13.9348 10.8674 13.9883 10.764 13.9883H9.97659C9.86951 13.9883 9.77444 13.9302 9.73751 13.8425L8.30028 10.3542C8.27259 10.2858 8.28367 10.2102 8.33167 10.1502C8.37967 10.0911 8.4572 10.0551 8.53936 10.0551H9.42459C9.53628 10.0551 9.63413 10.1188 9.66736 10.2111L10.2978 11.9834C10.3326 12.0824 10.3659 12.1777 10.398 12.27L10.3983 12.2708L10.3983 12.2709L10.4464 12.4089C10.5009 12.2742 10.56 12.132 10.6237 11.9815L11.4018 10.1982C11.4387 10.1123 11.5329 10.0551 11.6381 10.0551H12.3692C12.4754 10.0551 12.5704 10.1132 12.6074 10.2L13.3449 11.9446C13.4104 12.1015 13.4695 12.2483 13.5231 12.3868L13.5304 12.3663L13.5304 12.3662C13.5755 12.2408 13.6241 12.1054 13.6818 11.9575L14.3621 10.2055C14.3972 10.1151 14.495 10.0542 14.6031 10.0542H15.4578C15.5427 10.0542 15.6212 10.0902 15.6674 10.1502C15.7163 10.2129 15.7274 10.2895 15.6969 10.3588ZM22.3966 13.8462L23.9317 10.3588C23.9612 10.2895 23.9501 10.2129 23.903 10.1502C23.856 10.0902 23.7784 10.0542 23.6935 10.0542H22.8387C22.7298 10.0542 22.6329 10.1151 22.5987 10.2055L21.9175 11.9575C21.8575 12.1135 21.8049 12.2557 21.7597 12.3868C21.7052 12.2483 21.6452 12.1015 21.5787 11.9446L20.8421 10.2C20.8052 10.1132 20.7101 10.0551 20.604 10.0551H19.8738C19.7686 10.0551 19.6744 10.1123 19.6366 10.1982L18.8584 11.9815C18.7947 12.132 18.7357 12.2742 18.6812 12.4089C18.635 12.2742 18.5861 12.1329 18.5335 11.9834L17.9021 10.2111C17.8698 10.1188 17.772 10.0551 17.6603 10.0551H16.7741C16.691 10.0551 16.6135 10.0902 16.5655 10.1502C16.5175 10.2102 16.5083 10.2858 16.535 10.3542L17.9723 13.8425C18.0092 13.9302 18.1043 13.9883 18.2123 13.9883H18.9987C19.1012 13.9883 19.1954 13.9348 19.2341 13.8508L20.003 12.1892C20.0723 12.036 20.1424 11.8763 20.2098 11.7046C20.2707 11.8606 20.3354 12.0175 20.4074 12.1818L21.1357 13.8462C21.1726 13.932 21.2677 13.9883 21.372 13.9883H22.1594C22.2637 13.9883 22.3578 13.9329 22.3966 13.8462ZM21.4098 15.6923C21.1486 16.356 20.8209 16.9846 20.4341 17.5726C20.4145 17.5688 20.3952 17.5636 20.376 17.5584C20.3393 17.5484 20.3027 17.5385 20.2634 17.5385H18.5271C18.7107 16.9532 18.8547 16.3302 18.9794 15.6923H17.0824C16.9403 16.3375 16.7732 16.9634 16.5637 17.5385H7.34674C7.1372 16.9634 6.97105 16.3375 6.82797 15.6923H4.93197C5.05659 16.3302 5.20059 16.9532 5.38428 17.5385H3.64797C3.60859 17.5385 3.572 17.5484 3.53531 17.5584L3.53526 17.5584C3.51607 17.5636 3.49686 17.5688 3.4772 17.5726C3.09043 16.9846 2.76274 16.356 2.50151 15.6923H0.542742C2.10459 20.5071 6.62766 24 11.9557 24C17.2837 24 21.8067 20.5071 23.3677 15.6923H21.4098ZM5.00859 19.3846H6.1052C6.34336 19.8858 6.60551 20.3548 6.88982 20.7868C6.20766 20.3917 5.57813 19.9209 5.00859 19.3846ZM8.20613 19.3846C9.20213 21.0886 10.524 22.1538 11.9557 22.1538C13.3874 22.1538 14.7092 21.0886 15.7043 19.3846H8.20613ZM17.0215 20.7868C17.3067 20.3548 17.5689 19.8858 17.807 19.3846H18.9037C18.3332 19.9209 17.7037 20.3917 17.0215 20.7868Z" fill="#192038"/>
<mask id="mask0_3_400" style="mask-type:luminance" maskUnits="userSpaceOnUse" x="0" y="0" width="24" height="24">
<path fill-rule="evenodd" clip-rule="evenodd" d="M3.4772 6.42738C3.08951 7.01446 2.76274 7.64492 2.50151 8.30769H0.542742C2.10459 3.49292 6.62766 0 11.9557 0C17.2837 0 21.8067 3.49292 23.3677 8.30769H21.4098C21.1486 7.64492 20.8209 7.01446 20.435 6.42738C20.4148 6.43124 20.3951 6.43655 20.3756 6.44183C20.3389 6.45173 20.3025 6.46154 20.2634 6.46154H18.528C18.7117 7.04677 18.8557 7.66985 18.9803 8.30769H17.0834C16.9403 7.66246 16.7741 7.03754 16.5646 6.46154H7.34674C7.1372 7.03754 6.97105 7.66246 6.82797 8.30769H4.93105C5.05566 7.66985 5.19966 7.04677 5.38336 6.46154H3.64797C3.60859 6.46154 3.572 6.4516 3.53531 6.44163L3.53531 6.44163L3.5353 6.44163L3.5353 6.44163L3.53529 6.44163C3.51609 6.43641 3.49687 6.43119 3.4772 6.42738ZM17.8061 4.61538H18.9027C18.3332 4.07908 17.7037 3.60831 17.0206 3.21323C17.3058 3.64615 17.568 4.11415 17.8061 4.61538ZM11.9557 1.84615C13.3874 1.84615 14.7092 2.91138 15.7052 4.61538H8.20613C9.20213 2.91138 10.524 1.84615 11.9557 1.84615ZM6.10428 4.61538C6.34243 4.11415 6.60459 3.64615 6.8889 3.21323C6.20766 3.60831 5.57813 4.07908 5.00859 4.61538H6.10428ZM7.4612 10.3588L5.9252 13.8462C5.88736 13.9329 5.79228 13.9883 5.68797 13.9883H4.90151C4.7972 13.9883 4.70213 13.932 4.6652 13.8462L3.93597 12.1818C3.8649 12.0175 3.80028 11.8606 3.73936 11.7046C3.67197 11.8763 3.60274 12.036 3.53351 12.1892L2.76459 13.8508C2.72582 13.9348 2.63166 13.9883 2.5292 13.9883H1.74274C1.63474 13.9883 1.54059 13.9302 1.50366 13.8425L0.066434 10.3542C0.0387417 10.2858 0.0498186 10.2102 0.0978186 10.1502C0.145819 10.0902 0.222434 10.0551 0.305511 10.0551H1.19074C1.30243 10.0551 1.40028 10.1188 1.43351 10.2111L2.0649 11.9834C2.11751 12.1329 2.16643 12.2742 2.21166 12.4089C2.26705 12.2742 2.32705 12.132 2.39074 11.9815L3.16797 10.1982C3.20582 10.1123 3.29997 10.0551 3.40428 10.0551H4.13536C4.24151 10.0551 4.33566 10.1132 4.37351 10.2L5.11013 11.9446C5.17659 12.1015 5.23566 12.2483 5.29013 12.3868C5.33536 12.2557 5.38797 12.1135 5.44797 11.9575L6.12828 10.2055C6.16336 10.1151 6.26028 10.0542 6.36828 10.0542H7.22305C7.30705 10.0542 7.38459 10.0902 7.43259 10.1502C7.48151 10.2129 7.49074 10.2895 7.4612 10.3588ZM15.6969 10.3588L14.1609 13.8462C14.123 13.9329 14.028 13.9883 13.9246 13.9883H13.1363C13.032 13.9883 12.9378 13.932 12.9 13.8462L12.1717 12.1818C12.0997 12.0175 12.035 11.8606 11.9741 11.7046C11.9067 11.8763 11.8375 12.036 11.7683 12.1892L10.9994 13.8508C10.9606 13.9348 10.8674 13.9883 10.764 13.9883H9.97659C9.86951 13.9883 9.77444 13.9302 9.73751 13.8425L8.30028 10.3542C8.27259 10.2858 8.28367 10.2102 8.33167 10.1502C8.37967 10.0911 8.4572 10.0551 8.53936 10.0551H9.42459C9.53628 10.0551 9.63413 10.1188 9.66736 10.2111L10.2978 11.9834C10.3326 12.0824 10.3659 12.1777 10.398 12.27L10.3983 12.2708L10.3983 12.2709L10.4464 12.4089C10.5009 12.2742 10.56 12.132 10.6237 11.9815L11.4018 10.1982C11.4387 10.1123 11.5329 10.0551 11.6381 10.0551H12.3692C12.4754 10.0551 12.5704 10.1132 12.6074 10.2L13.3449 11.9446C13.4104 12.1015 13.4695 12.2483 13.5231 12.3868L13.5304 12.3663L13.5304 12.3662C13.5755 12.2408 13.6241 12.1054 13.6818 11.9575L14.3621 10.2055C14.3972 10.1151 14.495 10.0542 14.6031 10.0542H15.4578C15.5427 10.0542 15.6212 10.0902 15.6674 10.1502C15.7163 10.2129 15.7274 10.2895 15.6969 10.3588ZM22.3966 13.8462L23.9317 10.3588C23.9612 10.2895 23.9501 10.2129 23.903 10.1502C23.856 10.0902 23.7784 10.0542 23.6935 10.0542H22.8387C22.7298 10.0542 22.6329 10.1151 22.5987 10.2055L21.9175 11.9575C21.8575 12.1135 21.8049 12.2557 21.7597 12.3868C21.7052 12.2483 21.6452 12.1015 21.5787 11.9446L20.8421 10.2C20.8052 10.1132 20.7101 10.0551 20.604 10.0551H19.8738C19.7686 10.0551 19.6744 10.1123 19.6366 10.1982L18.8584 11.9815C18.7947 12.132 18.7357 12.2742 18.6812 12.4089C18.635 12.2742 18.5861 12.1329 18.5335 11.9834L17.9021 10.2111C17.8698 10.1188 17.772 10.0551 17.6603 10.0551H16.7741C16.691 10.0551 16.6135 10.0902 16.5655 10.1502C16.5175 10.2102 16.5083 10.2858 16.535 10.3542L17.9723 13.8425C18.0092 13.9302 18.1043 13.9883 18.2123 13.9883H18.9987C19.1012 13.9883 19.1954 13.9348 19.2341 13.8508L20.003 12.1892C20.0723 12.036 20.1424 11.8763 20.2098 11.7046C20.2707 11.8606 20.3354 12.0175 20.4074 12.1818L21.1357 13.8462C21.1726 13.932 21.2677 13.9883 21.372 13.9883H22.1594C22.2637 13.9883 22.3578 13.9329 22.3966 13.8462ZM21.4098 15.6923C21.1486 16.356 20.8209 16.9846 20.4341 17.5726C20.4145 17.5688 20.3952 17.5636 20.376 17.5584C20.3393 17.5484 20.3027 17.5385 20.2634 17.5385H18.5271C18.7107 16.9532 18.8547 16.3302 18.9794 15.6923H17.0824C16.9403 16.3375 16.7732 16.9634 16.5637 17.5385H7.34674C7.1372 16.9634 6.97105 16.3375 6.82797 15.6923H4.93197C5.05659 16.3302 5.20059 16.9532 5.38428 17.5385H3.64797C3.60859 17.5385 3.572 17.5484 3.53531 17.5584L3.53526 17.5584C3.51607 17.5636 3.49686 17.5688 3.4772 17.5726C3.09043 16.9846 2.76274 16.356 2.50151 15.6923H0.542742C2.10459 20.5071 6.62766 24 11.9557 24C17.2837 24 21.8067 20.5071 23.3677 15.6923H21.4098ZM5.00859 19.3846H6.1052C6.34336 19.8858 6.60551 20.3548 6.88982 20.7868C6.20766 20.3917 5.57813 19.9209 5.00859 19.3846ZM8.20613 19.3846C9.20213 21.0886 10.524 22.1538 11.9557 22.1538C13.3874 22.1538 14.7092 21.0886 15.7043 19.3846H8.20613ZM17.0215 20.7868C17.3067 20.3548 17.5689 19.8858 17.807 19.3846H18.9037C18.3332 19.9209 17.7037 20.3917 17.0215 20.7868Z" fill="white"/>
</mask>
<g mask="url(#mask0_3_400)">
<rect width="24" height="24" fill="#1D1E7A"/>
</g>
</svg>
