<svg width="27" height="33" viewBox="0 0 27 33" fill="none" xmlns="http://www.w3.org/2000/svg">
<mask id="mask0_3_595" style="mask-type:luminance" maskUnits="userSpaceOnUse" x="3" y="0" width="20" height="33">
<path fill-rule="evenodd" clip-rule="evenodd" d="M22.2481 12.4291H20.6202V9.7397C20.6202 4.54937 17.2123 0.326782 13.0233 0.326782C8.83426 0.326782 5.42639 4.54937 5.42639 9.7397V12.4291H3.79848C3.49854 12.4291 3.25583 12.7299 3.25583 13.1015V29.9103C3.25583 31.3936 4.22927 32.5997 5.42639 32.5997H20.6202C21.8173 32.5997 22.7907 31.3936 22.7907 29.9103V13.1015C22.7907 12.7299 22.548 12.4291 22.2481 12.4291ZM14.648 26.4743C14.665 26.6641 14.6157 26.8545 14.5129 26.997C14.4101 27.1395 14.2628 27.2209 14.1086 27.2209H11.938C11.7838 27.2209 11.6365 27.1395 11.5337 26.997C11.4309 26.8546 11.3816 26.6641 11.3986 26.4743L11.7409 22.6602C11.185 22.1592 10.8528 21.3667 10.8528 20.4974C10.8528 19.0141 11.8262 17.8079 13.0233 17.8079C14.2204 17.8079 15.1939 19.0141 15.1939 20.4974C15.1939 21.3667 14.8616 22.1592 14.3058 22.6602L14.648 26.4743ZM8.6822 9.7397V12.4291H17.3643V9.7397C17.3643 6.77387 15.4169 4.3609 13.0233 4.3609C10.6296 4.3609 8.6822 6.77387 8.6822 9.7397Z" fill="white"/>
</mask>
<g mask="url(#mask0_3_595)">
<rect y="0.326782" width="26" height="32" fill="#1D1E7A"/>
</g>
</svg>
