<svg width="24" height="24" viewBox="0 0 24 24" fill="none" xmlns="http://www.w3.org/2000/svg">
<mask id="mask0_3_395" style="mask-type:luminance" maskUnits="userSpaceOnUse" x="0" y="0" width="24" height="24">
<path fill-rule="evenodd" clip-rule="evenodd" d="M18.4356 0.000951109C19.9078 -0.026002 21.2949 0.520701 22.3423 1.53967C23.3997 2.56839 23.9877 3.94684 23.998 5.42115C24.0082 6.8957 23.4399 8.28194 22.3976 9.32458C21.456 10.2665 20.2061 10.8312 18.8782 10.9146C17.2924 11.0142 15.8218 11.6665 14.7373 12.7515L14.705 12.7838C14.5794 12.9095 14.409 12.9802 14.2313 12.9802C14.0535 12.9802 13.8831 12.9096 13.7575 12.784L11.1469 10.1725C10.8854 9.91098 10.8854 9.487 11.1469 9.22544L11.2927 9.07956C12.3384 8.03345 12.9741 6.61028 13.0826 5.07226C13.1719 3.80495 13.7046 2.60134 14.5823 1.68315C15.5937 0.625139 16.9622 0.0277167 18.4356 0.000951109ZM18.6742 12.2982C17.5311 12.4323 16.4832 12.9278 15.6987 13.7125L15.6676 13.7437C15.2832 14.1283 14.7736 14.3395 14.2315 14.3396H14.2311C13.6889 14.3396 13.1793 14.1285 12.796 13.745L10.1855 11.1337C9.39471 10.3425 9.39476 9.05542 10.1855 8.2644L10.3315 8.11843C11.0692 7.38044 11.5442 6.39465 11.6906 5.31489C10.6909 4.71315 9.70817 4.25898 8.82087 3.9954C6.75471 3.38167 5.67143 3.90254 5.12651 4.44761C4.18128 5.39312 4.15901 7.08601 5.06375 9.21447C5.85837 11.0838 7.32087 13.1631 9.07629 14.919C10.8317 16.675 12.9103 18.138 14.7791 18.9329C15.8187 19.375 16.7543 19.5959 17.5496 19.5959C18.3824 19.5959 19.0615 19.3537 19.545 18.8701C20.0909 18.324 20.612 17.238 19.9941 15.1654C19.7296 14.2783 19.2754 13.2966 18.6742 12.2982ZM11.9385 18.9549C11.7815 19.1745 11.6068 19.3824 11.4143 19.575C10.4804 20.5092 9.23867 21.0236 7.91792 21.0236C6.59717 21.0236 5.3555 20.5092 4.4216 19.575C2.49392 17.6467 2.49392 14.509 4.4216 12.5807C4.61557 12.3867 4.82253 12.2112 5.04049 12.0543C4.5477 11.2753 4.1315 10.4962 3.8127 9.74622C3.80599 9.73043 3.79956 9.71473 3.79313 9.69904L3.77928 9.66545C3.22789 9.99175 2.71751 10.3877 2.25331 10.852C-0.748661 13.855 -0.748661 18.7412 2.25331 21.7441C3.7076 23.1988 5.6412 24 7.69793 24C9.75462 24 11.6882 23.1988 13.1425 21.7441C13.6003 21.2861 13.9977 20.7712 14.3261 20.2165L14.2932 20.203L14.2928 20.2028C14.2775 20.1966 14.2623 20.1903 14.2469 20.1838C13.4969 19.8647 12.7176 19.4481 11.9385 18.9549Z" fill="white"/>
</mask>
<g mask="url(#mask0_3_395)">
<rect width="24" height="24" fill="#1D1E7A"/>
</g>
</svg>
