<svg width="56" height="56" viewBox="0 0 56 56" fill="none" xmlns="http://www.w3.org/2000/svg">
<mask id="mask0_2_859" style="mask-type:luminance" maskUnits="userSpaceOnUse" x="3" y="0" width="50" height="55">
<path fill-rule="evenodd" clip-rule="evenodd" d="M42.0195 23.633C42.2902 24.0608 42.3124 24.5523 42.0779 24.9998L26.7732 54.1973C26.514 54.692 25.9946 54.9875 25.4461 54.9875C25.3045 54.9875 25.1611 54.9763 25.0195 54.9352C24.33 54.7352 23.8871 54.1516 23.9671 53.4577L26.2562 33.6844H15.0898C14.5743 33.6844 14.0958 33.3382 13.8244 32.9131C13.5531 32.4878 13.5278 31.892 13.7574 31.4445L29.0603 1.61092C29.3161 1.11254 29.8355 0.809109 30.3851 0.809109C30.5282 0.809109 30.6731 0.828784 30.8162 0.86994C31.5094 1.06958 31.9544 1.79125 31.8714 2.48783L29.4355 23.0345H40.7511C41.2686 23.0345 41.749 23.205 42.0195 23.633ZM9.13971 27.908C9.13971 20.2642 14.0164 13.7056 20.909 11.0047L24.426 4.15066C12.4366 5.80321 3.18622 15.8262 3.18622 27.908C3.18622 38.9 10.8433 48.1889 21.2538 51.0192L21.9302 45.1791C14.5027 42.7477 9.13971 35.9241 9.13971 27.908ZM52.6547 27.908C52.6547 16.9181 45.0009 7.63103 34.594 4.7985L33.9023 10.6343C41.3341 13.0634 46.7012 19.8889 46.7012 27.908C46.7012 35.5072 41.8813 42.0336 35.0523 44.7636L31.4378 51.662C43.416 50.0001 52.6547 39.9819 52.6547 27.908Z" fill="white"/>
</mask>
<g mask="url(#mask0_2_859)">
<rect y="0.809109" width="56" height="54" fill="#026CFF"/>
</g>
</svg>
