<svg width="48" height="48" viewBox="0 0 48 48" fill="none" xmlns="http://www.w3.org/2000/svg">
<rect opacity="0.184547" width="48" height="48" rx="10" fill="#2FE8B6"/>
<mask id="mask0_3_420" style="mask-type:luminance" maskUnits="userSpaceOnUse" x="0" y="0" width="48" height="48">
<rect width="48" height="48" rx="10" fill="white"/>
</mask>
<g mask="url(#mask0_3_420)">
<rect width="48" height="48" fill="#026CFF"/>
</g>
<mask id="mask1_3_420" style="mask-type:luminance" maskUnits="userSpaceOnUse" x="12" y="13" width="24" height="22">
<path fill-rule="evenodd" clip-rule="evenodd" d="M24.718 24.3101V28.5338H20.4943V27.8531C20.4943 26.6758 19.5364 25.718 18.3589 25.718C17.1815 25.718 16.2237 26.6758 16.2237 27.8531V28.5338H12V24.3101H12.5867C13.6198 24.3101 14.4836 23.5725 14.6799 22.5966C14.7651 22.4774 14.8158 22.332 14.8158 22.1747C14.8158 22.0174 14.7651 21.872 14.6799 21.753C14.4836 20.7769 13.6198 20.0395 12.5867 20.0395H12V15.8158H16.2237V15.1354C16.2237 13.9578 17.1815 13 18.3589 13C19.5364 13 20.4943 13.9578 20.4943 15.1354V15.8158H24.718V20.0395H25.3044C26.482 20.0395 27.4398 20.9973 27.4398 22.1747C27.4398 23.3522 26.482 24.3101 25.3044 24.3101H24.718ZM36 25.446L33.0134 28.4325L33.4283 28.8474C34.2609 29.68 34.2609 31.0346 33.4283 31.8672C32.5957 32.6998 31.2411 32.6998 30.4085 31.8672L29.9938 31.4523L27.0071 34.4389L23.025 30.4569L23.5404 29.9415H26.1259V25.6218C27.6848 25.2505 28.8477 23.8459 28.8477 22.1747C28.8477 20.5037 27.6848 19.0991 26.1259 18.7275V17.3345L27.0071 16.453L29.9938 19.4396L30.475 18.9584C30.8782 18.5552 31.4145 18.3331 31.9847 18.3331C32.5551 18.3331 33.0914 18.5552 33.4948 18.9584C34.3271 19.791 34.3271 21.1456 33.4946 21.9782L33.0134 22.4594L36 25.446Z" fill="white"/>
</mask>
<g mask="url(#mask1_3_420)">
<rect x="12" y="13" width="24" height="24" fill="white"/>
</g>
</svg>
