<svg width="27" height="33" viewBox="0 0 27 33" fill="none" xmlns="http://www.w3.org/2000/svg">
<mask id="mask0_3_587" style="mask-type:luminance" maskUnits="userSpaceOnUse" x="1" y="0" width="24" height="33">
<path fill-rule="evenodd" clip-rule="evenodd" d="M21.7701 0.772207C22.2598 0.285655 22.9291 0.189151 23.4943 0.524992C24.0594 0.859823 24.4187 1.56794 24.4187 2.34406V18.4805C24.4187 24.8036 20.3291 30.0506 13.4781 32.5197C13.3295 32.5729 13.1768 32.5995 13.0235 32.5995C12.87 32.5995 12.7174 32.5729 12.5687 32.5197C5.71786 30.0506 1.62744 24.8026 1.62744 18.4805L1.62826 2.34406C1.62826 1.56794 1.98833 0.859823 2.55326 0.524929C3.11626 0.189088 3.78772 0.285655 4.27666 0.773153C6.30681 2.79708 9.9696 2.79809 12.0028 0.772207C12.5989 0.179318 13.4478 0.17831 14.044 0.773216C16.0749 2.79714 19.7361 2.79815 21.7701 0.772207ZM16.2792 22.5141C17.1783 22.5141 17.9071 21.6115 17.9071 20.4971V16.463C17.9071 15.349 17.1783 14.4459 16.2792 14.4459V12.4288C16.2792 10.205 14.819 8.39473 13.0234 8.39473C11.2278 8.39473 9.76759 10.205 9.76759 12.4288V14.4459C8.86847 14.4459 8.13968 15.349 8.13968 16.463V20.4971C8.13968 21.6115 8.86847 22.5141 9.76759 22.5141H16.2792ZM13.0234 10.4118C12.126 10.4118 11.3955 11.3169 11.3955 12.4288V14.4459H14.6513V12.4288C14.6513 11.3169 13.9208 10.4118 13.0234 10.4118ZM12.2094 18.48C12.2094 17.9231 12.5739 17.4715 13.0234 17.4715C13.4729 17.4715 13.8374 17.9231 13.8374 18.48C13.8374 19.0375 13.4729 19.4885 13.0234 19.4885C12.5739 19.4885 12.2094 19.0375 12.2094 18.48Z" fill="white"/>
</mask>
<g mask="url(#mask0_3_587)">
<rect y="0.326782" width="26" height="32" fill="#1D1E7A"/>
</g>
</svg>
