<svg width="68" height="68" viewBox="0 0 68 68" fill="none" xmlns="http://www.w3.org/2000/svg">
<rect opacity="0.184547" width="68" height="68" rx="10" fill="#2FE8B6"/>
<mask id="mask0_24_572" style="mask-type:luminance" maskUnits="userSpaceOnUse" x="0" y="0" width="68" height="68">
<rect width="68" height="68" rx="10" fill="white"/>
</mask>
<g mask="url(#mask0_24_572)">
<rect width="68" height="68" fill="#026CFF"/>
</g>
<mask id="mask1_24_572" style="mask-type:luminance" maskUnits="userSpaceOnUse" x="23" y="22" width="22" height="24">
<path fill-rule="evenodd" clip-rule="evenodd" d="M42.0597 22.3312C42.5109 21.9694 43.1276 21.8976 43.6484 22.1474C44.1691 22.3964 44.5002 22.923 44.5002 23.5002V35.5002C44.5002 40.2023 40.7319 44.1043 34.4192 45.9405C34.2822 45.9801 34.1415 45.9998 34.0002 45.9998C33.8588 45.9998 33.7182 45.9801 33.5812 45.9405C27.2687 44.1043 23.4996 40.2016 23.4996 35.5002L23.5004 23.5002C23.5004 22.923 23.8322 22.3964 24.3527 22.1474C24.8715 21.8976 25.4902 21.9694 25.9407 22.3319C27.8113 23.8371 31.1863 23.8378 33.0597 22.3312C33.6091 21.8903 34.3913 21.8896 34.9406 22.332C36.8119 23.8371 40.1855 23.8379 42.0597 22.3312ZM37.0002 38.4998C37.8287 38.4998 38.5002 37.8285 38.5002 36.9998V33.9998C38.5002 33.1714 37.8287 32.4998 37.0002 32.4998V30.9998C37.0002 29.346 35.6547 27.9998 34.0002 27.9998C32.3456 27.9998 31.0002 29.346 31.0002 30.9998V32.4998C30.1717 32.4998 29.5002 33.1714 29.5002 33.9998V36.9998C29.5002 37.8285 30.1717 38.4998 31.0002 38.4998H37.0002ZM34.0002 29.4998C33.1733 29.4998 32.5002 30.1729 32.5002 30.9998V32.4998H35.5002V30.9998C35.5002 30.1729 34.8271 29.4998 34.0002 29.4998ZM33.2502 35.4998C33.2502 35.0856 33.586 34.7498 34.0002 34.7498C34.4144 34.7498 34.7502 35.0856 34.7502 35.4998C34.7502 35.9144 34.4144 36.2498 34.0002 36.2498C33.586 36.2498 33.2502 35.9144 33.2502 35.4998Z" fill="white"/>
</mask>
<g mask="url(#mask1_24_572)">
<rect x="22" y="22" width="24" height="24" fill="white"/>
</g>
</svg>
